<svg xmlns="http://www.w3.org/2000/svg" xmlns:xlink="http://www.w3.org/1999/xlink" version="1.1" x="0px" y="0px" viewBox="0 0 100 125" enable-background="new 0 0 100 100" xml:space="preserve"><g enable-background="new    "><g><g><path fill-rule="evenodd" clip-rule="evenodd" d="M69,10h-1v7.5c0,3.59-2.91,6.5-6.5,6.5S55,21.09,55,17.5V10h-7v7.5     c0,3.59-2.91,6.5-6.5,6.5S35,21.09,35,17.5V10h-7v7.5c0,3.59-2.91,6.5-6.5,6.5S15,21.09,15,17.5V10h-1c-5.072,0-9,4.604-9,9.667     V75c0,5,5,9,10,9h39.377c-0.952-1.555-1.724-3.23-2.289-5H16c-3.043,0-6-2.963-6-6V34h62.989l-0.012,15.026     C73.316,49.011,73.657,49,74,49c1.365,0,2.7,0.126,4,0.354V20C78,14.938,74.072,10,69,10z"/></g></g></g><g enable-background="new    "><g><g><path d="M28,39h-6c-1.657,0-3,1.343-3,3v3c0,1.657,1.343,3,3,3h6c1.657,0,3-1.343,3-3v-3C31,40.343,29.657,39,28,39z"/></g></g></g><g enable-background="new    "><g><g><path d="M45,39h-6c-1.657,0-3,1.343-3,3v3c0,1.657,1.343,3,3,3h6c1.657,0,3-1.343,3-3v-3C48,40.343,46.657,39,45,39z"/></g></g></g><g enable-background="new    "><g><g><path d="M28,52h-6c-1.657,0-3,1.343-3,3v3c0,1.657,1.343,3,3,3h6c1.657,0,3-1.343,3-3v-3C31,53.343,29.657,52,28,52z"/></g></g></g><g enable-background="new    "><g><g><path d="M45,52h-6c-1.657,0-3,1.343-3,3v3c0,1.657,1.343,3,3,3h6c1.657,0,3-1.343,3-3v-3C48,53.343,46.657,52,45,52z"/></g></g></g><g enable-background="new    "><g><g><path d="M28,65h-6c-1.657,0-3,1.343-3,3v3c0,1.657,1.343,3,3,3h6c1.657,0,3-1.343,3-3v-3C31,66.343,29.657,65,28,65z"/></g></g></g><g enable-background="new    "><g><g><path d="M45,65h-6c-1.657,0-3,1.343-3,3v3c0,1.657,1.343,3,3,3h6c1.657,0,3-1.343,3-3v-3C48,66.343,46.657,65,45,65z"/></g></g></g><g enable-background="new    "><g><g><path d="M62,39h-6c-1.656,0-3,1.343-3,3v3c0,1.657,1.344,3,3,3h6c1.656,0,3-1.343,3-3v-3C65,40.343,63.656,39,62,39z"/></g></g></g><g enable-background="new    "><g><g><path d="M21.5,5C19.015,5,17,7.015,17,9.5v8c0,2.485,2.015,4.5,4.5,4.5s4.5-2.015,4.5-4.5v-8C26,7.015,23.985,5,21.5,5z"/></g></g></g><g enable-background="new    "><g><g><path d="M61.5,5C59.015,5,57,7.015,57,9.5v8c0,2.485,2.015,4.5,4.5,4.5s4.5-2.015,4.5-4.5v-8C66,7.015,63.985,5,61.5,5z"/></g></g></g><g enable-background="new    "><g><g><path d="M41.5,5C39.015,5,37,7.015,37,9.5v8c0,2.485,2.015,4.5,4.5,4.5s4.5-2.015,4.5-4.5v-8C46,7.015,43.985,5,41.5,5z"/></g></g></g><g enable-background="new    "><g><g><path fill-rule="evenodd" clip-rule="evenodd" d="M74.002,50.989c-11.596,0-20.997,9.404-20.997,21.006     C53.005,83.596,62.403,93,74,93s21-9.404,21-21.005C95,60.394,85.6,50.989,74.002,50.989z M74,90c-9.941,0-18-8.059-18-18     s8.059-18,18-18s18,8.059,18,18S83.941,90,74,90z"/></g></g></g><g enable-background="new    "><g><g><path d="M73,59c-1.104,0-2,0.896-2,2v12c0,1.104,0.896,2,2,2s2-0.896,2-2V61C75,59.896,74.104,59,73,59z"/></g></g></g><g enable-background="new    "><g><g><path d="M83,71H73c-1.104,0-2,0.896-2,2s0.896,2,2,2h10c1.104,0,2-0.896,2-2S84.104,71,83,71z"/></g></g></g></svg>